<?xml version="1.0" encoding="UTF-8"?>
<!DOCTYPE svg PUBLIC "-//W3C//DTD SVG 1.1//EN" "http://www.w3.org/Graphics/SVG/1.1/DTD/svg11.dtd">
<svg xmlns="http://www.w3.org/2000/svg" version="1.1" width="256px" height="256px" style="shape-rendering:geometricPrecision; text-rendering:geometricPrecision; image-rendering:optimizeQuality; fill-rule:evenodd; clip-rule:evenodd" xmlns:xlink="http://www.w3.org/1999/xlink">
<g><path style="opacity:0.888" fill="#060403" d="M 118.5,1.5 C 150.783,-0.626278 170.283,14.0404 177,45.5C 177.667,58.5 177.667,71.5 177,84.5C 169.321,117.174 148.821,131.341 115.5,127C 94.1665,120.664 81.6665,106.498 78,84.5C 77.3333,71.5 77.3333,58.5 78,45.5C 82.3336,22.3352 95.8336,7.66856 118.5,1.5 Z M 117.5,7.5 C 145.478,4.67277 163.312,16.6728 171,43.5C 171.667,57.1667 171.667,70.8333 171,84.5C 164.015,113.249 145.848,125.416 116.5,121C 99.0553,115.222 88.2219,103.389 84,85.5C 83.3333,71.5 83.3333,57.5 84,43.5C 88.4771,25.1922 99.6438,13.1922 117.5,7.5 Z"/></g>
<g><path style="opacity:0.886" fill="#06080b" d="M 83.5,135.5 C 85.3904,135.297 86.8904,135.963 88,137.5C 100.656,163.48 113.823,189.146 127.5,214.5C 141.177,189.146 154.344,163.48 167,137.5C 167.739,136.426 168.739,135.759 170,135.5C 190.474,149.343 201.807,168.677 204,193.5C 204.821,213.21 204.654,232.877 203.5,252.5C 152.833,253.833 102.167,253.833 51.5,252.5C 50.3459,232.877 50.1792,213.21 51,193.5C 52.4031,177.951 57.7364,163.951 67,151.5C 72.3953,145.936 77.8953,140.603 83.5,135.5 Z M 83.5,143.5 C 97.8143,170.126 111.648,197.126 125,224.5C 126.667,225.833 128.333,225.833 130,224.5C 143.411,197.344 157.078,170.344 171,143.5C 188.246,157.661 197.246,175.994 198,198.5C 198.5,214.83 198.667,231.163 198.5,247.5C 151.167,247.5 103.833,247.5 56.5,247.5C 56.3334,230.83 56.5001,214.163 57,197.5C 58.1392,175.557 66.9725,157.557 83.5,143.5 Z"/></g>
</svg>
